<svg xmlns="http://www.w3.org/2000/svg" width="25.186" height="23.372" viewBox="0 0 25.186 23.372">
  <g id="グループ_52" data-name="グループ 52" transform="translate(0.5 0.5)">
    <path id="パス_10" data-name="パス 10" d="M5,28.233v6.651a1.209,1.209,0,0,0,1.209,1.209H8.628a1.209,1.209,0,0,0,1.209-1.209V25.209A1.209,1.209,0,0,0,8.628,24H6.209" transform="translate(-5 -13.721)" fill="none" stroke="#fff" stroke-linecap="round" stroke-linejoin="round" stroke-width="1"/>
    <path id="パス_11" data-name="パス 11" d="M21,20.233V31.721a1.209,1.209,0,0,0,1.209,1.209h2.419a1.209,1.209,0,0,0,1.209-1.209V17.209A1.209,1.209,0,0,0,24.628,16H22.209" transform="translate(-11.326 -10.558)" fill="none" stroke="#fff" stroke-linecap="round" stroke-linejoin="round" stroke-width="1"/>
    <path id="パス_12" data-name="パス 12" d="M37,11.233v16.93a1.209,1.209,0,0,0,1.209,1.209h2.419a1.209,1.209,0,0,0,1.209-1.209V8.209A1.209,1.209,0,0,0,40.628,7H38.209" transform="translate(-17.652 -7)" fill="none" stroke="#fff" stroke-linecap="round" stroke-linejoin="round" stroke-width="1"/>
  </g>
</svg>
