<svg xmlns="http://www.w3.org/2000/svg" width="47.711" height="52.724" viewBox="0 0 47.711 52.724">
  <g id="グループ_51" data-name="グループ 51" transform="translate(-8856.255 70.284)">
    <path id="パス_29" data-name="パス 29" d="M25.039,62.093V24.458a2.745,2.745,0,0,1,2.741-2.741H57.058v-4.8H27.78a7.552,7.552,0,0,0-7.544,7.544V62.093a7.553,7.553,0,0,0,7.544,7.544H57.058v-4.8H27.78a2.745,2.745,0,0,1-2.741-2.742" transform="translate(8836.019 -87.198)" fill="#fff"/>
    <path id="パス_30" data-name="パス 30" d="M59.252,62.037,74.34,46.95,59.252,31.864l-3.4,3.4,9.289,9.29H46.239v4.8H65.146l-9.289,9.29Z" transform="translate(8829.626 -90.872)" fill="#fff"/>
  </g>
</svg>
