<?xml version="1.0" encoding="UTF-8"?><svg id="_イヤー_1" xmlns="http://www.w3.org/2000/svg" viewBox="0 0 873.15 644.58"><defs><style>.cls-1{fill:#fff;}</style></defs><g><path d="M301.57,282.78c0-74.56,60.44-135.01,135.01-135.01,37.77,0,71.92,15.52,96.42,40.52l59.55-59.55c-48.44-14.24-101.02-23.46-155.97-23.46C195.46,105.28,0,282.78,0,282.78c0,0,117.94,107.09,283.6,154.91l58.49-58.49c-25-24.5-40.52-58.65-40.52-96.42Z"/><path class="cls-1" d="M382.03,282.78c0-30.12,24.42-54.54,54.54-54.54,15.55,0,29.57,6.52,39.51,16.96l56.91-56.91c-24.5-25-58.65-40.52-96.42-40.52-74.56,0-135.01,60.44-135.01,135.01,0,37.77,15.52,71.92,40.52,96.42l56.91-56.91c-10.44-9.94-16.96-23.96-16.96-39.51Z"/><path class="cls-1" d="M436.57,417.79c74.56,0,135.01-60.44,135.01-135.01,0-6.78-.51-13.43-1.47-19.94l-153.48,153.48c6.51,.96,13.17,1.47,19.94,1.47Z"/><path d="M436.57,228.24c-30.12,0-54.54,24.42-54.54,54.54,0,15.55,6.52,29.57,16.96,39.51l77.09-77.09c-9.94-10.44-23.96-16.96-39.51-16.96Z"/></g><path d="M873.15,282.78s-71.2-64.64-180.65-115.91l127.26-127.26L780.14,0,175.18,604.97l39.61,39.61,185.63-185.63c11.92,.86,23.98,1.32,36.15,1.32,241.11,0,436.57-177.5,436.57-177.5Zm-301.67,5.12c-2.63,70.49-59.29,127.16-129.78,129.78l129.78-129.78Z"/></svg>